Format : AVI
Format/Info : Audio Video Interleave
File size : 1.35 GiB
Duration : 1h 47mn
Overall bit rate : 1 796 Kbps
Writing application : VirtualDubMod 1.5.10.3 | www.virtualdub-fr.org || (build 2550/release)
Writing library : VirtualDubMod build 2550/release

Video
ID : 0
Format : MPEG-4 Visual
Format profile : Advanced Simple@L5
Format settings, BVOP : Yes
Format settings, QPel : No
Format settings, GMC : No warppoints
Format settings, Matrix : Custom
Codec ID : XVID
Codec ID/Hint : XviD
Duration : 1h 47mn
Bit rate : 1 658 Kbps
Width : 720 pixels
Height : 384 pixels
Display aspect ratio : 1.875
Frame rate : 25.000 fps
Color space : YUV
Chroma subsampling : 4:2:0
Bit depth : 8 bits
Scan type : Progressive
Bits/(Pixel*Frame) : 0.240
Stream size : 1.25 GiB (92%)
Writing library : XviD 1.2.1 (UTC 2008-12-04)

Audio
ID : 1
Format : MPEG Audio
Format version : Version 1
Format profile : Layer 3
Codec ID : 55
Codec ID/Hint : MP3
Duration : 1h 47mn
Bit rate mode : Constant
Bit rate : 128 Kbps
Channel(s) : 2 channels
Sampling rate : 44.1 KHz
Stream size : 98.7 MiB (7%)
Alignment : Split accross interleaves
Interleave, duration : 40 ms (1.00 video frame)
Interleave, preload duration : 500 ms



 
http://www.imdb.com/title/tt0491152/







Users: 5.4/10 (992 votes) 24 reviews | Critics: 32 reviews Metascore: 35/100 (based on 29 reviews from Metacritic.com)

Friendships are tested and secrets come to the surface when terminally single Rachel falls for Dex, her best friend Darcy's fiancé.
Director:
Luke Greenfield
Writers:
Jennie Snyder (screenplay), Emily Giffin (novel)
Stars:
Ginnifer Goodwin, Kate Hudson and Colin Egglesfield















SOURCES:



VIDEO: russians (IMAGiNE)....:Thanks

AUDIO:IMAGiNE ..........................Thanks

Slight sharpen,slight saturation levels ,contrast/brightness

Video has a pulse/flicker which you'll see in the sample so down it first and dont moan later ............Thanks again to IMAGiNE for another release.....This is same video as my cam release all i did was demux the direct line and put it with this video

Enjoy




Greetz to Imagine ,Flawl3ss,DiLLoN,BDK,NOiR,TOXiCiNK,THC,Ez,Rx,Boobyblue,TaRiQ786,LKRG